<svg xmlns="http://www.w3.org/2000/svg" xmlns:xlink="http://www.w3.org/1999/xlink" version="1.1" x="0px" y="0px" viewBox="0 0 90 90" enable-background="new 0 0 90 90" xml:space="preserve"><g><path d="M45.299,89.6H44.51c-11.046,0-20.033-8.162-20.033-18.196V44.708c0-5.325,2.532-10.125,6.56-13.455   c-7.831-8.583-6.396-15.009-6.328-15.289l0.278-1.152l1.135,0.353c0.29,0.09,2.508,0.814,5.974,2.88   c-1.872-8.728-0.448-13.466,0.185-13.998l0.668-0.562l0.705,0.515c0.158,0.116,2.591,1.955,6.347,7.86   c1.537-7.087,3.795-10.358,3.903-10.51l0.948-1.349l0.896,1.386c0.111,0.176,1.943,3.113,3.389,11.057   c3.906-6.126,6.459-7.913,6.576-7.995l1.045-0.712l0.574,1.125c0.092,0.178,2.018,4.113,0.1,13.174   c3.576-2.132,5.822-2.829,5.977-2.875l1.125-0.339l0.275,1.142c0.066,0.278,1.488,6.638-6.203,15.152   c4.123,3.335,6.727,8.193,6.727,13.591v26.695C65.332,81.438,56.346,89.6,45.299,89.6z M41.913,87.207   c0.849,0.112,1.715,0.169,2.598,0.169h0.789c0.734,0,1.457-0.04,2.166-0.117l-2.799-3.057L41.913,87.207z M46.174,82.556   l3.885,4.242c3.133-0.78,5.922-2.313,8.111-4.365l-5.943-6.484L46.174,82.556z M31.386,82.189c2.134,2.088,4.88,3.667,7.978,4.507   l3.793-4.141l-6.053-6.607L31.386,82.189z M38.612,74.302l6.053,6.608l6.053-6.608l-6.053-6.607L38.612,74.302z M53.734,74.302   l5.955,6.501c2.148-2.639,3.418-5.888,3.418-9.399v-0.084l-3.32-3.625L53.734,74.302z M26.701,70.798v0.605   c0,3.389,1.182,6.534,3.196,9.12l5.699-6.222l-6.053-6.606L26.701,70.798z M31.051,66.049l6.053,6.607l6.053-6.608l-6.053-6.606   L31.051,66.049z M46.174,66.048l6.053,6.608l6.055-6.607l-6.055-6.607L46.174,66.048z M61.295,66.049l1.812,1.979V64.07   L61.295,66.049z M26.701,64.592v2.914l1.335-1.457L26.701,64.592z M26.701,61.301l2.842,3.103l6.054-6.608l-6.054-6.607   l-2.842,3.103V61.301z M53.734,57.795l6.053,6.608l3.32-3.625v-5.968l-3.32-3.623L53.734,57.795z M38.612,57.795l6.053,6.607   l6.053-6.607l-6.053-6.606L38.612,57.795z M46.174,49.543l6.053,6.606l6.055-6.607l-6.055-6.609L46.174,49.543z M31.051,49.542   l6.054,6.607l6.053-6.606l-6.054-6.609L31.051,49.542z M61.297,49.542l1.811,1.977v-3.954L61.297,49.542z M26.701,48.084v2.914   l1.334-1.456L26.701,48.084z M38.611,41.289l6.054,6.608l6.053-6.609l-6.053-6.607L38.611,41.289z M53.734,41.288l6.053,6.608   l3.314-3.616c-0.102-3.468-1.443-6.663-3.639-9.244L53.734,41.288z M26.701,44.793l2.842,3.103l6.053-6.607l-5.478-5.979   c-2.148,2.638-3.417,5.889-3.417,9.399V44.793z M31.641,33.679l5.463,5.964l6.054-6.608l-3.408-3.719   C36.616,30.095,33.827,31.627,31.641,33.679z M46.174,33.034l6.053,6.608l5.682-6.202c-2.238-2.015-5.072-3.5-8.242-4.219   L46.174,33.034z M42.343,28.854l2.322,2.536l2.362-2.579c-0.568-0.049-1.146-0.075-1.729-0.075H44.51   C43.777,28.735,43.053,28.776,42.343,28.854z M26.8,17.804c0.07,2.112,0.926,6.588,6.039,12.124c0.8-0.523,1.644-0.993,2.526-1.406   c-1.013-2.552-1.853-5.024-2.501-7.367C30.178,19.379,28.069,18.349,26.8,17.804z M50.701,27.185   c2.205,0.561,4.258,1.458,6.086,2.625c5.012-5.474,5.859-9.897,5.93-12.001c-2.113,0.912-6.568,3.176-12.09,7.936   C50.654,26.215,50.68,26.696,50.701,27.185z M33.614,7.028c-0.34,2.16-0.521,6.44,1.285,13.143c0.64,2.377,1.489,4.9,2.526,7.516   c2.203-0.759,4.592-1.175,7.085-1.175h0.664C39.938,14.742,35.65,9.228,33.614,7.028z M47.658,26.638   c0.268,0.029,0.531,0.062,0.795,0.1C47.811,14.133,45.867,7.413,44.73,4.466c-0.884,1.88-2.165,5.239-3.012,10.233   C43.502,17.789,45.508,21.705,47.658,26.638z M49.68,15.819c0.297,2.109,0.559,4.491,0.766,7.173   c1.531-1.259,2.971-2.327,4.295-3.232c1.67-6.421,1.41-10.399,1.033-12.376C54.529,8.664,52.385,11.217,49.68,15.819z"/></g></svg>